<?xml version="1.0" encoding="UTF-8" standalone="no"?>
<svg
   width="1920"
   height="1080"
   version="1.1"
   id="svg1"
   sodipodi:docname="main-thumbnail.svg"
   xml:space="preserve"
   inkscape:version="1.3.2 (091e20e, 2023-11-25, custom)"
   inkscape:export-filename="..\..\gamedev\ez-curved-lines-2d\addons\curved_lines_2d\video_thumbnails\a_z_deep_dive.png"
   inkscape:export-xdpi="96"
   inkscape:export-ydpi="96"
   xmlns:inkscape="http://www.inkscape.org/namespaces/inkscape"
   xmlns:sodipodi="http://sodipodi.sourceforge.net/DTD/sodipodi-0.dtd"
   xmlns:xlink="http://www.w3.org/1999/xlink"
   xmlns="http://www.w3.org/2000/svg"
   xmlns:svg="http://www.w3.org/2000/svg"><defs
     id="defs1"><rect
       x="1222.4999"
       y="1227.5585"
       width="62.389648"
       height="55.644821"
       id="rect4" /><linearGradient
       id="linearGradient1"
       inkscape:collect="always"><stop
         style="stop-color:#ffffff;stop-opacity:1;"
         offset="0"
         id="stop1" /><stop
         style="stop-color:#8ab5d5;stop-opacity:1;"
         offset="0.24789916"
         id="stop4" /><stop
         style="stop-color:#478cbf;stop-opacity:1;"
         offset="0.63073456"
         id="stop7" /><stop
         style="stop-color:#68728b;stop-opacity:1;"
         offset="0.87483257"
         id="stop3" /><stop
         style="stop-color:#4a5372;stop-opacity:1;"
         offset="1"
         id="stop2" /></linearGradient><radialGradient
       inkscape:collect="always"
       xlink:href="#linearGradient1"
       id="radialGradient2"
       cx="9.1327887"
       cy="28.246252"
       fx="9.1327887"
       fy="28.246252"
       r="64.060593"
       gradientUnits="userSpaceOnUse"
       gradientTransform="matrix(-9.1284675,16.78269,-27.621194,-15.14688,868.21977,285.01281)" /><clipPath
       clipPathUnits="userSpaceOnUse"
       id="clipPath22"><rect
         style="fill:#09ff00;fill-opacity:1;fill-rule:evenodd;stroke:#0bff00;stroke-width:8;stroke-miterlimit:80;stroke-dasharray:none;stroke-opacity:1;paint-order:markers fill stroke"
         id="rect23"
         width="406"
         height="1024"
         x="-968"
         y="-580" /></clipPath><clipPath
       clipPathUnits="userSpaceOnUse"
       id="clipPath1"><path
         id="path1"
         style="fill:#363d52;fill-rule:evenodd;stroke-width:3.77399;stroke-miterlimit:80;paint-order:markers fill stroke"
         d="M 556,-286 H 2308 V 476 H 556 Z" /></clipPath><radialGradient
       inkscape:collect="always"
       xlink:href="#linearGradient1-7"
       id="radialGradient2-3"
       cx="9.1327887"
       cy="28.246252"
       fx="9.1327887"
       fy="28.246252"
       r="64.060593"
       gradientUnits="userSpaceOnUse"
       gradientTransform="matrix(-0.06360448,16.841999,-16.643523,-0.06285536,1888.9762,385.81257)" /><linearGradient
       id="linearGradient1-7"
       inkscape:collect="always"><stop
         style="stop-color:#feb4cd;stop-opacity:1;"
         offset="0"
         id="stop1-3" /><stop
         style="stop-color:#f58b8e;stop-opacity:1;"
         offset="0.24789916"
         id="stop4-1" /><stop
         style="stop-color:#e84929;stop-opacity:1;"
         offset="0.45378149"
         id="stop7-6" /><stop
         style="stop-color:#e5350b;stop-opacity:1;"
         offset="0.77731097"
         id="stop3-7" /><stop
         style="stop-color:#8c1801;stop-opacity:1;"
         offset="1"
         id="stop2-3" /></linearGradient></defs><sodipodi:namedview
     id="namedview1"
     pagecolor="#505050"
     bordercolor="#ffffff"
     borderopacity="1"
     inkscape:showpageshadow="0"
     inkscape:pageopacity="0"
     inkscape:pagecheckerboard="1"
     inkscape:deskcolor="#505050"
     inkscape:zoom="0.29652355"
     inkscape:cx="844.78955"
     inkscape:cy="365.90685"
     inkscape:current-layer="svg1"
     showguides="false"
     showgrid="false"><sodipodi:guide
       position="54.5,25.999969"
       orientation="0,-1"
       id="guide8"
       inkscape:locked="false" /><sodipodi:guide
       position="41,115.49997"
       orientation="0,-1"
       id="guide9"
       inkscape:locked="false" /><sodipodi:guide
       position="52,10.749969"
       orientation="0,-1"
       id="guide10"
       inkscape:locked="false" /><sodipodi:guide
       position="70.357125,29.00502"
       orientation="1,0"
       id="guide11"
       inkscape:locked="false" /><sodipodi:guide
       position="35,37.124969"
       orientation="1,0"
       id="guide12"
       inkscape:locked="false" /><sodipodi:guide
       position="33.375,39.124969"
       orientation="-0.89135025,-0.45331526"
       id="guide13"
       inkscape:locked="false" /><sodipodi:guide
       position="98.111066,113.68106"
       orientation="1,0"
       id="guide14"
       inkscape:locked="false" /></sodipodi:namedview><path
     style="color:#000000;fill:url(#radialGradient2);fill-rule:evenodd;stroke-width:1.00728;stroke-linecap:round;stroke-linejoin:round;stroke-miterlimit:80;stroke-dashoffset:2.09998;-inkscape-stroke:none"
     d="M 22.617801,0 H 1897.3823 C 1909.9125,0 1920,10.128787 1920,22.710281 V 1057.2898 c 0,12.5815 -10.0875,22.7102 -22.6177,22.7102 H 22.617801 C 10.087539,1080 0,1069.8713 0,1057.2898 V 22.710281 C 0,10.128787 10.087539,0 22.617801,0 Z"
     id="path51" /><style
     type="text/css"
     id="style26" /><g
     id="g5"
     transform="matrix(0.55518116,0.62299504,-0.64561982,0.55122162,1726.3481,9.1240878)"><path
       fill="#478cbf"
       d="m 205.12178,734.96403 79.21541,-38.80765 q 6.22216,-3.11553 11.61247,2.39686 l 22.12492,31.85827 68.14336,-34.76623 -14.39886,-32.50679 q -2.32153,-6.02938 2.8903,-11.91319 l 79.93918,-48.72342 q 7.61806,-1.93628 11.91324,2.89026 l 22.29424,27.69441 62.12811,-44.63534 -18.17738,-34.26427 q -2.42968,-7.31697 3.19097,-11.41958 l 70.79411,-52.6244 -73.98767,-121.38926 q 3.07384,-28.26759 3.27155,-56.81239 -35.01577,-18.58711 -73.4389,-28.32962 -15.20325,22.80199 -26.32713,47.8547 -30.86637,-6.22705 -62.67271,-5.11359 -11.8848,-27.27142 -26.7302,-52.73829 -37.5351,3.92848 -73.32665,16.26887 0.103,29.03837 4.06897,57.75246 -26.28443,11.28319 -48.35829,29.47479 -23.70417,-16.68352 -49.46662,-30.08226 -27.37027,26.15716 -48.06269,57.71899 15.8324,24.86523 34.62541,47.92609 -15.565,27.75965 -24.17487,58.04792 -27.3653,-1.59334 -54.598922,1.47023 -8.948394,38.61594 -8.474143,78.25624 25.461685,12.90534 51.995225,23.12677 z m 9.92523,16.28387 11.72978,19.24463 C 309.78735,906.68535 710.964,662.16511 628.44692,525.67149 l -11.72976,-19.24467 -62.51358,46.22382 18.28544,35.55184 q 2.02076,5.5362 -2.99849,10.62579 l -76.63073,54.15132 q -5.92155,3.60937 -11.20371,-0.61568 l -24.48398,-29.06689 -65.1357,39.70068 14.61497,35.0821 q 1.33459,6.63114 -4.58676,10.24015 l -83.24771,43.29574 q -6.82377,2.12898 -10.81837,-2.20407 l -23.21972,-32.54464 z"
       id="path6"
       style="fill:none;stroke:#ffffff;stroke-width:56.9619;stroke-dasharray:none;stroke-opacity:1" /><path
       d="m 204.4434,737.76004 9.92534,16.28371 Q 521.67372,806.3156 616.03881,509.22267 l -9.92531,-16.28371 z"
       id="path1-7"
       style="fill:#ffffff;stroke:#212532;stroke-width:0.577888;stroke-opacity:1" /><path
       fill="#478cbf"
       d="m 204.4434,737.76004 79.2155,-38.80781 q 6.22214,-3.11554 11.61248,2.39686 l 22.12494,31.85828 68.14336,-34.76625 -14.3991,-32.50644 q -2.32142,-6.02957 2.89032,-11.91318 l 79.93927,-48.72359 q 7.61815,-1.93648 11.91337,2.89006 l 22.29417,27.69442 62.12802,-44.63515 -18.17731,-34.26428 q -2.42959,-7.31713 3.19104,-11.41974 L 606.1135,492.93896 532.12584,371.54974 q 3.07383,-28.26761 3.27146,-56.8124 -35.01564,-18.58731 -73.43875,-28.3298 -15.20329,22.80199 -26.32723,47.85489 -30.8663,-6.22721 -62.67263,-5.11378 -11.8849,-27.27127 -26.73027,-52.73812 -37.53514,3.92846 -73.32677,16.26902 0.10311,29.03806 4.06929,57.75199 -26.28455,11.28332 -48.3585,29.47511 -23.70407,-16.68367 -49.46654,-30.08242 -27.37038,26.15732 -48.0626,57.71881 15.83222,24.86556 34.62529,47.92626 -15.56505,27.75981 -24.17493,58.04809 -27.36521,-1.59349 -54.598873,1.47027 -8.948334,38.61576 -8.474199,78.25619 25.461802,12.90519 51.995132,23.12695 z m 9.92534,16.28371 11.72971,19.24463 c 83.01057,136.19291 484.1871,-108.32728 401.6701,-244.82106 l -11.72974,-19.24465 -62.5135,46.22382 18.28545,35.55186 q 2.02074,5.53599 -2.99851,10.62579 l -76.63085,54.15148 q -5.92136,3.60902 -11.20365,-0.61569 l -24.48405,-29.06691 -65.13578,39.70088 14.61512,35.08199 q 1.33456,6.63105 -4.58681,10.24007 l -83.2476,43.29558 q -6.82379,2.12889 -10.81826,-2.20423 l -23.22004,-32.54416 z"
       id="path2-2"
       style="stroke:#212532;stroke-width:0.577888;stroke-opacity:1" /><path
       d="m 369.01273,588.04942 c 10.22593,16.77744 38.84609,-0.66674 28.62019,-17.44415 l -25.86564,-42.43679 c -10.22588,-16.77759 -38.84621,0.66691 -28.62022,17.44414 z"
       id="path3"
       style="fill:#ffffff;stroke:#212532;stroke-width:0.577888;stroke-opacity:1" /><circle
       cx="148.89294"
       cy="651.41992"
       id="circle3"
       style="fill:#ffffff;stroke:#212532;stroke-width:0.577888;stroke-opacity:1"
       transform="rotate(-31.362637)"
       r="52.009834" /><circle
       cx="-97.286957"
       cy="651.41992"
       id="circle4"
       style="fill:#ffffff;stroke:#212532;stroke-width:0.577888;stroke-opacity:1"
       transform="rotate(-31.362637)"
       r="52.009834" /><circle
       cx="-92.663795"
       cy="654.88727"
       r="34.673225"
       id="circle5"
       transform="rotate(-31.362638)"
       style="fill:#414042;stroke-width:0.577887" /><circle
       cx="144.26987"
       cy="654.88727"
       r="34.673225"
       id="circle6"
       transform="rotate(-31.362638)"
       style="fill:#414042;stroke-width:0.577887" /></g><rect
     style="fill:#ff0000;fill-opacity:0.695946;fill-rule:evenodd;stroke:none;stroke-width:6.82079;stroke-miterlimit:80;stroke-dasharray:none;stroke-dashoffset:0;stroke-opacity:1;paint-order:markers fill stroke"
     id="rect2"
     width="1914.5651"
     height="175.12585"
     x="2.0560579"
     y="891.02838" /><path
     id="rect1"
     style="fill:none;fill-opacity:0.349099;fill-rule:evenodd;stroke:#ffffff;stroke-width:17.1729;stroke-miterlimit:80;stroke-dasharray:none;paint-order:markers fill stroke"
     d="m 0,894.47294 h 1917.6659 m 0,176.88426 H 0"
     sodipodi:nodetypes="cccc" /><rect
     style="fill:#ff0000;fill-opacity:0.628378;fill-rule:evenodd;stroke:none;stroke-width:6.8439;stroke-miterlimit:80;stroke-dasharray:none;stroke-dashoffset:0;stroke-opacity:1;paint-order:markers fill stroke"
     id="rect2-2"
     width="1914.5651"
     height="176.31514"
     x="5.4349461"
     y="9.7175207" /><path
     id="rect1-5"
     style="fill:none;fill-opacity:0.349099;fill-rule:evenodd;stroke:#ffffff;stroke-width:17.1821;stroke-miterlimit:80;stroke-dasharray:none;paint-order:markers fill stroke"
     d="M 1.3816568,8.5910723 H 1919.0475 m 0,177.0745977 H 1.3816568"
     sodipodi:nodetypes="cccc" /><text
     xml:space="preserve"
     style="font-style:normal;font-variant:normal;font-weight:normal;font-stretch:normal;font-size:147.709px;font-family:'Showcard Gothic';-inkscape-font-specification:'Showcard Gothic';text-align:center;text-anchor:middle;fill:#ffffff;fill-rule:evenodd;stroke:#000000;stroke-width:9.23183;stroke-miterlimit:80;stroke-dasharray:none;stroke-dashoffset:0;paint-order:markers fill stroke"
     x="953.54401"
     y="1051.6385"
     id="text1"
     transform="scale(1.0137393,0.9864469)"><tspan
       sodipodi:role="line"
       id="tspan1"
       x="953.54401"
       y="1051.6385"
       style="stroke-width:9.23183">ANimate curves &amp; DRAW</tspan></text><text
     xml:space="preserve"
     style="font-style:normal;font-variant:normal;font-weight:normal;font-stretch:normal;font-size:148.582px;font-family:'Showcard Gothic';-inkscape-font-specification:'Showcard Gothic';text-align:center;text-anchor:middle;fill:#ffffff;fill-rule:evenodd;stroke:#000000;stroke-width:9.53353;stroke-miterlimit:80;stroke-dasharray:none;stroke-dashoffset:0;paint-order:markers fill stroke"
     x="950.66925"
     y="154.46086"
     id="text1-5"
     transform="scale(1.0137393,0.98644689)"><tspan
       sodipodi:role="line"
       id="tspan1-2"
       x="950.66925"
       y="154.46086"
       style="font-size:148.582px;stroke-width:9.53353">Scalable vector shapes</tspan></text><text
     xml:space="preserve"
     style="font-size:277.385px;font-family:'Showcard Gothic';-inkscape-font-specification:'Showcard Gothic';text-align:center;text-anchor:middle;fill:#ff00ee;fill-rule:evenodd;stroke:#ffffff;stroke-width:46.231;stroke-miterlimit:80;paint-order:markers fill stroke"
     x="6417.5566"
     y="3264.6216"
     id="text2"
     transform="scale(1.0137393,0.98644689)"><tspan
       sodipodi:role="line"
       id="tspan2"
       x="6417.5566"
       y="3264.6216"
       style="stroke-width:46.231" /></text><g
     id="g3"
     transform="matrix(0.50000003,0,0,0.50000002,-26.367535,33.751035)"><rect
       style="fill:none;fill-rule:evenodd;stroke:#000000;stroke-width:47.6648;stroke-linecap:round;stroke-linejoin:round;stroke-miterlimit:80;stroke-dasharray:none;stroke-dashoffset:2.09998;stroke-opacity:0.441441;paint-order:normal"
       id="rect3"
       width="1043.2382"
       height="1043.2382"
       x="1476.8718"
       y="599.71149"
       ry="33.127022"
       rx="33.127022"
       transform="rotate(-3.1449579)" /><rect
       style="fill:url(#radialGradient2-3);fill-rule:evenodd;stroke:#8a1805;stroke-width:17.6508;stroke-linecap:round;stroke-linejoin:round;stroke-miterlimit:80;stroke-dasharray:none;stroke-dashoffset:2.09998;stroke-opacity:1;paint-order:normal"
       id="rect1-1"
       width="1094.3491"
       height="1094.3491"
       x="1411.1243"
       y="521.87225"
       ry="34.75"
       rx="34.75"
       transform="rotate(-3.1449579)" /><path
       id="path1-2"
       style="color:#000000;fill:#ffffff;fill-opacity:1;stroke:#731701;stroke-width:86.875;stroke-linecap:round;stroke-linejoin:round;stroke-dasharray:none;stroke-opacity:0.818878;paint-order:stroke markers fill"
       d="m 2311.8034,508.68186 c -43.5569,1.87206 -86.5909,24.42163 -111.7434,72.33943 -98.2612,14.31325 -169.7011,53.9779 -214.8654,111.89666 -58.7552,75.39191 -72.2197,164.94834 -84.1723,245.15923 l -58.5726,247.57692 -130.4528,-155.2984 c -23.9716,-28.5139 -66.5373,-32.19823 -95.059,-8.228 -28.449,23.9462 -32.1379,66.3867 -8.2461,94.8734 l 216.8573,258.1585 c 35.6774,42.3385 104.3825,26.0426 117.2259,-27.8042 l 89.9433,-380.24946 38.0098,-155.06734 c 3.5313,-9.30068 11.4104,-24.06133 20.8857,-36.21813 21.8299,-28.1199 53.8068,-50.89849 114.0896,-60.86365 70.3179,110.95094 241.5935,66.19721 248.584,-64.95661 4.232,-90.08471 -69.8889,-144.43878 -142.484,-141.31835 z"
       sodipodi:nodetypes="sccccccccccccccs" /><path
       style="opacity:0.99;fill:none;fill-opacity:1;fill-rule:evenodd;stroke:#000000;stroke-width:27.9621;stroke-linejoin:miter;stroke-miterlimit:80;stroke-dasharray:none;stroke-opacity:0.425693;paint-order:normal"
       d="m 1914.6461,1111.4152 80.4335,-152.17893 304.806,0.75115"
       id="path7"
       sodipodi:nodetypes="ccc" /><ellipse
       style="opacity:0.99;fill:none;fill-opacity:1;fill-rule:evenodd;stroke:#000000;stroke-width:27.9621;stroke-linejoin:miter;stroke-miterlimit:80;stroke-dasharray:none;stroke-opacity:0.425693;paint-order:normal"
       id="ellipse7"
       cx="-30.342569"
       cy="2213.6982"
       rx="55.924541"
       ry="55.923737"
       transform="rotate(-59.203575)" /><ellipse
       style="opacity:0.99;fill:none;fill-opacity:1;fill-rule:evenodd;stroke:#000000;stroke-width:27.9621;stroke-linejoin:miter;stroke-miterlimit:80;stroke-dasharray:none;stroke-opacity:0.425693;paint-order:normal"
       id="ellipse8"
       cx="326.11749"
       cy="2416.5564"
       rx="55.924541"
       ry="55.923737"
       transform="rotate(-59.203575)" /><ellipse
       style="opacity:0.99;fill:#414042;fill-opacity:1;fill-rule:evenodd;stroke:#fbf7ff;stroke-width:27.9621;stroke-linejoin:miter;stroke-miterlimit:80;stroke-dasharray:none;stroke-opacity:1;paint-order:normal"
       id="path5"
       cx="-10.291983"
       cy="2194.113"
       rx="55.924541"
       ry="55.923737"
       transform="rotate(-59.203575)" /><rect
       style="opacity:0.99;fill:none;fill-opacity:1;fill-rule:evenodd;stroke:#000000;stroke-width:27.9621;stroke-linejoin:miter;stroke-miterlimit:80;stroke-dasharray:none;stroke-opacity:0.425693;paint-order:normal"
       id="rect8"
       width="111.84908"
       height="111.84747"
       x="138.96931"
       y="2148.9524"
       ry="0"
       transform="rotate(-59.203575)" /><path
       style="opacity:0.99;fill:none;fill-opacity:1;fill-rule:evenodd;stroke:#fbf7ff;stroke-width:27.9621;stroke-linejoin:miter;stroke-miterlimit:80;stroke-dasharray:none;stroke-opacity:1;paint-order:normal"
       d="m 1908.0895,1084.1647 80.4333,-152.17893 304.806,0.75114"
       id="path4"
       sodipodi:nodetypes="ccc" /><ellipse
       style="opacity:0.99;fill:#414042;fill-opacity:1;fill-rule:evenodd;stroke:#fbf7ff;stroke-width:27.9621;stroke-linejoin:miter;stroke-miterlimit:80;stroke-dasharray:none;stroke-opacity:1;paint-order:normal"
       id="circle7"
       cx="346.16809"
       cy="2396.9724"
       rx="55.924541"
       ry="55.923737"
       transform="rotate(-59.203575)" /><rect
       style="opacity:0.99;fill:#414042;fill-opacity:1;fill-rule:evenodd;stroke:#fbf7ff;stroke-width:27.9621;stroke-linejoin:miter;stroke-miterlimit:80;stroke-dasharray:none;stroke-opacity:1;paint-order:normal"
       id="rect2-1"
       width="111.84908"
       height="111.84747"
       x="159.0199"
       y="2129.3674"
       ry="0"
       transform="rotate(-59.203575)" /><text
       xml:space="preserve"
       style="font-size:121.625px;font-family:Sans;-inkscape-font-specification:Sans;opacity:0.414692;fill:#000000;fill-opacity:1;fill-rule:evenodd;stroke:#000000;stroke-width:8.6875;stroke-miterlimit:80;stroke-dasharray:none;stroke-opacity:1;paint-order:normal"
       x="2026.4034"
       y="1508.9966"
       id="text14"
       transform="rotate(-3.1449579)"><tspan
         sodipodi:role="line"
         id="tspan14"
         x="2026.4034"
         y="1508.9966"
         style="font-size:121.625px;fill:#000000;fill-opacity:1;stroke:#000000;stroke-width:8.6875;stroke-opacity:1">2D</tspan></text><text
       xml:space="preserve"
       style="font-size:121.625px;font-family:Sans;-inkscape-font-specification:Sans;fill:#ffffff;fill-opacity:1;fill-rule:evenodd;stroke:#ffffff;stroke-width:8.6875;stroke-miterlimit:80;stroke-dasharray:none;stroke-opacity:1;paint-order:normal"
       x="2011.0603"
       y="1494.8887"
       id="text8"
       transform="rotate(-3.1449579)"><tspan
         sodipodi:role="line"
         id="tspan8"
         x="2011.0603"
         y="1494.8887"
         style="font-size:121.625px;stroke:#ffffff;stroke-width:8.6875;stroke-opacity:1">2D</tspan></text></g><text
     xml:space="preserve"
     style="font-style:normal;font-variant:normal;font-weight:normal;font-stretch:normal;font-size:414.385px;font-family:'Showcard Gothic';-inkscape-font-specification:'Showcard Gothic';text-align:center;text-anchor:middle;fill:#ffffff;fill-rule:evenodd;stroke:#000000;stroke-width:12.1885;stroke-miterlimit:80;stroke-dasharray:none;stroke-dashoffset:0;paint-order:markers fill stroke"
     x="468.57645"
     y="617.37964"
     id="text1-5-6"
     transform="matrix(0.98191982,0.25199378,-0.24520948,0.95548406,0,0)"><tspan
       sodipodi:role="line"
       id="tspan1-2-6"
       x="468.57645"
       y="617.37964"
       style="font-size:414.385px;stroke-width:12.1885;stroke-dasharray:none">2d</tspan></text></svg>
