<?xml version="1.0" encoding="UTF-8" standalone="no"?>
<!-- Created with Inkscape (http://www.inkscape.org/) -->

<svg
   width="232.19603"
   height="1234.3599"
   viewBox="0 0 232.19603 1234.3599"
   version="1.1"
   id="svg1"
   inkscape:version="1.3.2 (091e20e, 2023-11-25, custom)"
   sodipodi:docname="jaques.svg"
   inkscape:export-filename="head.png"
   inkscape:export-xdpi="96"
   inkscape:export-ydpi="96"
   xmlns:inkscape="http://www.inkscape.org/namespaces/inkscape"
   xmlns:sodipodi="http://sodipodi.sourceforge.net/DTD/sodipodi-0.dtd"
   xmlns:xlink="http://www.w3.org/1999/xlink"
   xmlns="http://www.w3.org/2000/svg"
   xmlns:svg="http://www.w3.org/2000/svg">
  <sodipodi:namedview
     id="namedview1"
     pagecolor="#505050"
     bordercolor="#ffffff"
     borderopacity="1"
     inkscape:showpageshadow="0"
     inkscape:pageopacity="0"
     inkscape:pagecheckerboard="1"
     inkscape:deskcolor="#505050"
     inkscape:document-units="px"
     inkscape:zoom="0.70710678"
     inkscape:cx="115.96551"
     inkscape:cy="451.13413"
     inkscape:current-layer="layer1"
     showguides="false"
     showgrid="false">
    <sodipodi:guide
       position="69.782009,201.35119"
       orientation="0,-1"
       id="guide5"
       inkscape:locked="false" />
    <sodipodi:guide
       position="60.2171,227.94117"
       orientation="0,-1"
       id="guide6"
       inkscape:locked="false" />
    <sodipodi:guide
       position="53.037569,133.90573"
       orientation="0.99943327,-0.033662271"
       id="guide7"
       inkscape:locked="false" />
    <sodipodi:guide
       position="63.93329,143.09309"
       orientation="0,-1"
       id="guide8"
       inkscape:locked="false" />
    <sodipodi:guide
       position="17.490722,181.47302"
       orientation="0,-1"
       id="guide1"
       inkscape:locked="false" />
  </sodipodi:namedview>
  <defs
     id="defs1">
    <linearGradient
       id="linearGradient50"
       inkscape:collect="always">
      <stop
         style="stop-color:#682c00;stop-opacity:1;"
         offset="0"
         id="stop50" />
      <stop
         style="stop-color:#5e2900;stop-opacity:1;"
         offset="1"
         id="stop51" />
    </linearGradient>
    <linearGradient
       id="linearGradient35"
       inkscape:collect="always">
      <stop
         style="stop-color:#562400;stop-opacity:1;"
         offset="0"
         id="stop35" />
      <stop
         style="stop-color:#4e2100;stop-opacity:1;"
         offset="1"
         id="stop37" />
    </linearGradient>
    <linearGradient
       inkscape:collect="always"
       xlink:href="#linearGradient27"
       id="linearGradient42"
       x1="-252.8255"
       y1="30.730091"
       x2="-238.20145"
       y2="58.511341"
       gradientUnits="userSpaceOnUse"
       gradientTransform="matrix(3.6835958,0.84613793,-0.84613793,3.6835958,1223.4852,315.65796)" />
    <linearGradient
       id="linearGradient27"
       inkscape:collect="always">
      <stop
         style="stop-color:#f59ea5;stop-opacity:1;"
         offset="0"
         id="stop36" />
      <stop
         style="stop-color:#d17b7e;stop-opacity:1;"
         offset="1"
         id="stop41" />
    </linearGradient>
    <linearGradient
       inkscape:collect="always"
       xlink:href="#linearGradient35"
       id="linearGradient37"
       x1="116.9064"
       y1="359.45154"
       x2="117.40892"
       y2="359.80234"
       gradientUnits="userSpaceOnUse"
       gradientTransform="matrix(0.87721239,0,0,1,-25.954374,7.3601843)" />
    <linearGradient
       inkscape:collect="always"
       xlink:href="#linearGradient50"
       id="linearGradient51"
       x1="132.47795"
       y1="363.23163"
       x2="136.70461"
       y2="360.35428"
       gradientUnits="userSpaceOnUse"
       gradientTransform="translate(-39.835153,8.2254694)" />
  </defs>
  <g
     inkscape:label="Jacques"
     inkscape:groupmode="layer"
     id="layer1"
     transform="translate(-78.064674,-52.814071)"
     inkscape:highlight-color="#218af3">
    <path
       id="rect42"
       style="fill:#cabc89;fill-opacity:1;fill-rule:evenodd;stroke:#837a57;stroke-width:3.99999;stroke-miterlimit:80;stroke-dasharray:none;stroke-dashoffset:2.09998;stroke-opacity:1;paint-order:markers fill stroke"
       d="m 91.042656,1225.9571 c 10.155894,-15.04 20.245194,-30.7665 34.848414,0 l 2.42003,26.6049 c -15.94616,17.4695 -29.134258,12.1573 -41.140494,-2.9169 z"
       sodipodi:nodetypes="ccccc"
       inkscape:transform-center-x="-0.63981161"
       inkscape:transform-center-y="7.5810968"
       inkscape:label="Sock" />
    <path
       id="rect3"
       style="opacity:1;fill:#ac6d16;fill-opacity:1;fill-rule:evenodd;stroke:#5a3a0d;stroke-width:6;stroke-miterlimit:80;stroke-dasharray:none;stroke-dashoffset:2.09998;stroke-opacity:1;paint-order:markers fill stroke"
       inkscape:transform-center-x="7.0935049"
       inkscape:transform-center-y="25.500712"
       d="m 105.16378,686.38319 c -17.711607,28.02769 -13.928523,61.77971 -7.947262,100.07225 -7.9e-5,0.008 -0.0019,0.0189 -0.002,0.0302 12.698622,74.81011 8.001612,144.26743 9.669912,215.68366 -18.439893,44.0678 -16.134136,155.0058 -16.869129,224.0996 10.813589,1.8267 24.262479,3.903 35.537109,-0.2638 9.70075,-32.456 41.33213,-185.6771 45.84178,-219.1758 0.15194,-1.1879 0.24756,-2.3407 0.29103,-3.457 5.40586,-38.90392 42.89268,-184.027 41.28907,-216.86724 -0.0227,-0.6805 -0.0896,-1.40829 -0.13493,-2.11328 0.67771,-32.18079 8.24447,-66.01115 5.31224,-98.50979 -3.96522,0.18822 -107.76057,0.17159 -112.98787,0.50132 z"
       sodipodi:nodetypes="ccccccccccccc"
       inkscape:label="Pants" />
    <path
       id="rect1"
       style="fill:#a24049;fill-opacity:1;fill-rule:evenodd;stroke:#6a292e;stroke-width:6;stroke-miterlimit:80;stroke-dasharray:none;stroke-dashoffset:2.09998;stroke-opacity:1;paint-order:markers fill stroke"
       d="m 144.7394,290.28029 c 9.32012,-2.90418 56.19306,11.24036 66.45225,22.35776 46.85272,70.92759 4.78926,305.1578 6.21966,357.75585 L 109.93263,669.94818 C 121.30474,484.33737 52.097132,367.76903 144.7394,290.28184 Z"
       sodipodi:nodetypes="cccccc"
       inkscape:transform-center-x="-30.510379"
       inkscape:transform-center-y="120.71333"
       inkscape:label="Torso" />
    <path
       id="rect4"
       style="fill:#682c00;fill-opacity:1;fill-rule:evenodd;stroke:#491e00;stroke-width:3.99999;stroke-miterlimit:80;stroke-dasharray:none;stroke-dashoffset:2.09998;stroke-opacity:1;paint-order:markers fill stroke"
       d="m 108.60717,666.65485 110.09236,1.38573 0.80394,21.44874 -117.52802,0.0518 z"
       sodipodi:nodetypes="ccccc"
       inkscape:label="Belt" />
    <path
       id="path34"
       style="fill:#f59ea5;fill-opacity:1;fill-rule:evenodd;stroke:#794145;stroke-width:1.05833;stroke-linejoin:round;stroke-miterlimit:80;stroke-dasharray:none;stroke-dashoffset:2.09998;stroke-opacity:1;paint-order:markers fill stroke"
       inkscape:transform-center-x="-12.460326"
       inkscape:transform-center-y="94.508303"
       d="m 76.454164,176.95395 c 0.562239,3.68563 1.942093,11.61343 2.909383,16.10393 0.05463,0.36407 0.128283,0.7128 0.217041,1.04852 1.65127,10.65875 4.194504,36.62323 5.683891,44.32804 0.07916,0.697 -0.284498,5.99248 0.07131,7.86876 0.01177,1.46812 1.546525,8.21246 3.316592,8.20726 1.630285,-0.005 -0.507649,-7.02251 -0.194545,-8.4046 0.202399,1.67342 2.419206,9.94105 4.122473,9.95231 2.31177,-0.0792 -0.899952,-7.94834 -1.176765,-10.00157 0.938883,1.57814 3.763705,10.94993 6.054375,10.42572 3.009161,-0.68863 -1.984993,-8.9465 -3.195976,-11.64992 1.535386,2.09591 5.245671,9.2701 7.209847,8.43026 2.58433,-1.10501 -2.951164,-7.8408 -5.443307,-10.3786 1.650125,0.40988 4.624027,5.4377 6.208087,3.21033 -0.87028,-2.77974 -2.709756,-6.14701 -3.818863,-7.08849 -1.131909,-0.96084 -2.361444,-1.84409 -3.997194,-2.33006 -0.482855,-4.76482 -1.260552,-43.65501 -1.376406,-43.20092 0.04628,-0.38678 0.04417,-0.8661 0.04367,-0.8786 0.456494,-3.27097 2.769856,-12.20196 2.769856,-15.64139 z"
       sodipodi:nodetypes="cccccscccscsccsccccc"
       inkscape:label="Arm"
       transform="matrix(3.7795274,0,0,3.7795274,-168.45094,-155.66822)" />
    <path
       id="rect2"
       style="opacity:1;fill:#a24049;fill-opacity:1;fill-rule:evenodd;stroke:#6a292e;stroke-width:1.05833;stroke-miterlimit:80;stroke-dasharray:none;stroke-dashoffset:2.09998;stroke-opacity:1;paint-order:markers fill stroke"
       d="m 97.027312,144.17501 c 1.09097,13.74626 -0.0304,22.20846 -1.10154,32.9148 l -19.39831,0.003 c -0.86847,-7.19097 -3.38734,-19.94398 -1.83656,-32.97004 0.34494,-5.19969 4.38148,-11.06961 11.2618,-10.99186 7.37761,0.0834 10.66769,5.91694 11.07461,11.0441 z"
       sodipodi:nodetypes="scccss"
       inkscape:transform-center-x="-1.1405893"
       inkscape:transform-center-y="10.57857"
       inkscape:label="Sleeve"
       transform="matrix(3.7795274,0,0,3.7795274,-168.45094,-155.66822)" />
    <path
       id="path4"
       style="fill:url(#linearGradient51);fill-rule:evenodd;stroke:#411c00;stroke-width:1.05833;stroke-linejoin:round;stroke-miterlimit:80;stroke-dasharray:none;stroke-dashoffset:2.09998;stroke-opacity:1;paint-order:markers fill stroke"
       d="m 95.606137,376.31044 c -5.2624,-0.3095 -11.32214,-0.004 -17.89967,0.2152 -1.69519,-0.38649 -1.258349,-9.97637 0.175061,-11.31636 0.19352,3.22903 10.740039,3.47347 11.809859,0.36635 5.40838,1.82263 8.89662,2.62303 13.015363,4.78856 7.09424,0.19529 10.16791,-1.08595 10.63262,4.22295 -0.42396,4.1396 -17.733233,1.7233 -17.733233,1.7233 z"
       sodipodi:nodetypes="ccccccc"
       inkscape:transform-center-x="-11.009825"
       inkscape:transform-center-y="0.66228087"
       inkscape:label="Shoe"
       transform="matrix(3.7795274,0,0,3.7795274,-209.48288,-145.29816)" />
    <path
       id="path35"
       style="fill:url(#linearGradient37);fill-rule:evenodd;stroke:#411c00;stroke-width:0.264583;stroke-linejoin:round;stroke-miterlimit:80;stroke-dasharray:none;stroke-dashoffset:2.09998;stroke-opacity:1;paint-order:markers fill stroke"
       d="m 85.289222,368.64403 c -4.18288,0.0467 -8.043725,-1.61207 -8.580245,-0.34577 0.14303,-1.22471 0.38109,-2.61268 0.82179,-2.92528 0.32055,-0.28212 0.81571,-0.25954 0.93088,-0.0401 -0.021,0.30178 0.767379,1.143 1.037229,1.28725 1.27997,0.22853 8.131981,1.80154 10.069741,-1.09179 0,0 -0.492546,2.9834 -4.279395,3.11569 z"
       sodipodi:nodetypes="ccccccc"
       inkscape:transform-center-x="0.77715595"
       inkscape:transform-center-y="-3.5672004"
       inkscape:label="ShoeDecoration"
       transform="matrix(3.7795274,0,0,3.7795274,-209.48288,-145.29816)" />
    <path
       id="rect37"
       style="fill:#411c00;fill-rule:evenodd;stroke-width:1.98246;stroke-miterlimit:80;stroke-dashoffset:2.09998;paint-order:markers fill stroke"
       d="m 77.103257,376.01441 c 12.53709,0.0638 25.534743,0.20125 36.724163,-1.35658 l -0.36079,2.69046 c -6.01458,1.52434 -13.11228,1.27374 -19.948423,1.45178 l -0.50412,-0.76585 -6.18501,0.0324 -0.029,0.94163 -10.33515,-0.009 c 0.16602,-0.99495 0.18756,-1.98989 0.63833,-2.98484 z"
       sodipodi:nodetypes="ccccccccc"
       inkscape:transform-center-x="-11.201436"
       inkscape:transform-center-y="6.5343159"
       inkscape:label="Sole"
       transform="matrix(3.7795274,0,0,3.7795274,-209.48288,-145.29816)" />
    <path
       id="rect51"
       style="fill:#411c00;fill-rule:evenodd;stroke:#411c00;stroke-width:0;stroke-miterlimit:80;stroke-dashoffset:2.09998;paint-order:markers fill stroke"
       d="m 91.90283,365.8777 0.959436,0.70852 -2.347819,3.17931 c -0.586974,0.0359 -0.966507,-0.1394 -0.959437,-0.70851 z"
       sodipodi:nodetypes="ccccc"
       inkscape:transform-center-x="-7.2638539"
       inkscape:transform-center-y="-2.4748711"
       inkscape:label="Lace"
       transform="matrix(3.7795274,0,0,3.7795274,-209.48288,-145.29816)" />
    <path
       id="rect52"
       style="fill:#411c00;fill-rule:evenodd;stroke:#411c00;stroke-width:0;stroke-miterlimit:80;stroke-dashoffset:2.09998;paint-order:markers fill stroke"
       d="m 99.012187,368.28647 0.95944,0.70851 -1.81038,2.71215 c -0.48425,-0.0234 -0.84888,-0.20154 -0.95944,-0.70851 z"
       sodipodi:nodetypes="ccccc"
       inkscape:transform-center-x="-14.641981"
       inkscape:transform-center-y="-0.30192413"
       inkscape:label="Lace"
       transform="matrix(3.7795274,0,0,3.7795274,-209.48288,-145.29816)" />
    <path
       id="rect53"
       style="fill:#411c00;fill-rule:evenodd;stroke:#411c00;stroke-width:0;stroke-miterlimit:80;stroke-dashoffset:2.09998;paint-order:markers fill stroke"
       d="m 95.621217,367.11714 0.95943,0.70852 -2.12453,2.97677 c -0.44742,0.0153 -0.87932,-1e-5 -0.95944,-0.70851 z"
       sodipodi:nodetypes="ccccc"
       inkscape:transform-center-x="-11.093926"
       inkscape:transform-center-y="-1.3374101"
       inkscape:label="Lace"
       transform="matrix(3.7795274,0,0,3.7795274,-209.48288,-145.29816)" />
    <path
       id="rect43"
       style="fill:#f59ea5;fill-opacity:1;fill-rule:evenodd;stroke:#794145;stroke-width:3.99999;stroke-miterlimit:80;stroke-dashoffset:2.09998;stroke-opacity:1;paint-order:markers fill stroke"
       d="m 137.21369,198.91011 43.03771,50.55025 c 2.40763,23.48233 5.20014,63.05667 1.74312,83.18771 -23.7995,6.69993 -45.77828,-29.80123 -67.35288,-43.3692 4.9502,-45.01029 19.45508,-71.1082 22.57205,-90.36876 z"
       sodipodi:nodetypes="ccccc"
       inkscape:label="Neck"
       transform="translate(31.75,8.202083)" />
    <path
       id="path2"
       style="fill:url(#linearGradient42);fill-opacity:1;fill-rule:evenodd;stroke:#794145;stroke-width:2;stroke-miterlimit:80;stroke-dasharray:none;stroke-dashoffset:2.09998;stroke-opacity:1;paint-order:markers fill stroke"
       d="m 314.2044,259.52299 c -3.34013,5.5334 -16.98742,4.67602 -25.73643,4.73454 -10.81625,19.93927 -2.86497,49.90305 -17.64737,60.34405 -16.92993,0.83937 -76.54204,-14.23865 -97.53545,-52.87005 -16.04666,-29.52855 -7.40446,-138.35789 11.99642,-157.23444 25.22542,-24.543645 51.89411,-28.910807 77.8548,-23.16833 79.70948,17.63165 35.32736,110.03692 41.14616,118.88449 10.45142,15.8915 14.30697,42.04515 9.92187,49.30974 z"
       sodipodi:nodetypes="sccsssss"
       inkscape:label="Head"
       inkscape:transform-center-x="-52.76482"
       inkscape:transform-center-y="-62.41832" />
    <path
       id="path11"
       style="fill:#743e41;fill-opacity:1;fill-rule:evenodd;stroke-width:0.999999;stroke-miterlimit:80;stroke-dashoffset:2.09998;paint-order:markers fill stroke"
       d="m 302.62927,159.05275 c -0.0665,-2.41535 -5.91442,-4.21354 -13.06133,-4.01641 -7.1469,0.19712 -31.12418,6.13152 -31.05755,8.54684 5.21506,-0.83289 42.59613,-0.51717 44.11888,-4.53043 z"
       sodipodi:nodetypes="cccc"
       inkscape:label="EyeBrow"
       inkscape:transform-center-x="-92.889378"
       inkscape:transform-center-y="-109.97054" />
    <path
       id="ellipse17"
       style="fill:#ffffff;fill-opacity:1;fill-rule:evenodd;stroke:#794145;stroke-width:0.999999;stroke-miterlimit:80;stroke-dasharray:none;stroke-dashoffset:2.09998;stroke-opacity:1;paint-order:markers fill stroke"
       d="m 296.35295,187.38129 c -1.73074,7.53467 -5.6646,13.42464 -8.03816,12.70858 -4.23234,-1.27679 -18.66192,-15.99396 -17.47104,-19.56055 2.097,-6.28041 22.02359,-8.99612 24.38565,-7.19157 1.97007,1.50508 2.8543,6.50887 1.12355,14.04354 z"
       sodipodi:nodetypes="sssss"
       inkscape:label="Eye"
       inkscape:transform-center-x="-96.345482"
       inkscape:transform-center-y="-82.803663" />
    <ellipse
       style="fill:#3a2d5b;fill-opacity:1;fill-rule:evenodd;stroke:none;stroke-width:1.06083;stroke-miterlimit:80;stroke-dasharray:none;stroke-dashoffset:2.09998;stroke-opacity:1;paint-order:markers fill stroke"
       id="ellipse19"
       cx="326.08011"
       cy="116.52399"
       rx="4.3600588"
       ry="13.59588"
       inkscape:label="IrisRim"
       transform="rotate(12.936674)"
       inkscape:transform-center-x="-104.0365"
       inkscape:transform-center-y="-82.705673" />
    <ellipse
       style="fill:#7e62c6;fill-opacity:1;fill-rule:evenodd;stroke:none;stroke-width:0.999999;stroke-miterlimit:80;stroke-dasharray:none;stroke-dashoffset:2.09998;stroke-opacity:1;paint-order:markers fill stroke"
       id="Iris"
       cx="326.33011"
       cy="116.52399"
       rx="4.1100583"
       ry="12.81631"
       inkscape:label="Iris"
       transform="rotate(12.936674)"
       inkscape:transform-center-x="-104.28016"
       inkscape:transform-center-y="-82.649705" />
    <path
       id="ellipse16"
       style="fill:#211a34;fill-opacity:1;fill-rule:evenodd;stroke-width:0.564763;stroke-miterlimit:80;stroke-dashoffset:2.09998;paint-order:markers fill stroke"
       d="m 296.16572,187.06011 c -0.75179,3.92624 -1.7202,5.80727 -2.36824,7.24546 -1.24939,-0.28702 -3.05129,-4.38872 -2.15635,-8.28478 0.89494,-3.89605 4.05148,-6.38266 5.30092,-6.09568 -0.0594,1.64141 -0.0947,3.57533 -0.77633,7.135 z"
       sodipodi:nodetypes="scscs"
       inkscape:label="Pupil"
       inkscape:transform-center-x="-106.49101"
       inkscape:transform-center-y="-82.168804" />
    <ellipse
       style="fill:#ffffff;fill-opacity:1;fill-rule:evenodd;stroke:none;stroke-width:0.343349;stroke-miterlimit:80;stroke-dasharray:none;stroke-dashoffset:2.09998;stroke-opacity:1;paint-order:markers fill stroke"
       id="ellipse18"
       cx="324.19501"
       cy="113.28963"
       rx="2.8110614"
       ry="2.2090909"
       inkscape:label="PupilShine"
       transform="rotate(12.936674)"
       inkscape:transform-center-x="-102.92334"
       inkscape:transform-center-y="-86.279964" />
    <path
       id="path21"
       style="fill:#574145;fill-opacity:1;fill-rule:evenodd;stroke:#572e31;stroke-width:3.99999;stroke-miterlimit:80;stroke-dasharray:none;stroke-dashoffset:2.09998;stroke-opacity:1;paint-order:markers fill stroke"
       d="m 310.2607,119.3936 c 3.35042,12.11338 3.01599,15.45959 0.73273,19.92548 -11.42177,-6.71589 -41.79201,-15.56046 -75.33495,-23.26542 -26.85807,25.82141 -21.9402,121.05513 -70.69625,75.85784 -4.02107,1.30694 -10.54422,-35.65488 -15.11896,-44.88047 -10.06855,-20.30471 20.83998,-105.237161 91.06145,-81.733833 130.38369,15.26483 87.85815,36.103843 69.35598,54.096403 z"
       sodipodi:nodetypes="ccccscc"
       inkscape:label="Hair"
       inkscape:transform-center-x="-52.255985"
       inkscape:transform-center-y="-136.70864" />
    <path
       id="path22"
       style="fill:#f59ea5;fill-opacity:1;fill-rule:evenodd;stroke:#572e31;stroke-width:2;stroke-miterlimit:80;stroke-dasharray:none;stroke-dashoffset:2.09998;stroke-opacity:1;paint-order:markers fill stroke"
       d="m 191.14935,198.37146 c 0.21821,10.69267 4.29459,22.87703 -11.3568,21.74169 -15.65135,-1.13534 -24.6049,-12.75263 -27.75033,-25.7027 -8.38857,-34.53675 6.50191,-45.68903 30.74652,-20.40684 8.63776,9.00745 8.09341,11.27544 8.36061,24.36785 z"
       sodipodi:nodetypes="sssss"
       inkscape:label="Ear"
       inkscape:transform-center-x="16.944625"
       inkscape:transform-center-y="-79.058095" />
    <path
       id="path25"
       style="fill:#86474b;fill-opacity:1;fill-rule:evenodd;stroke-width:0.718235;stroke-miterlimit:80;stroke-dashoffset:2.09998;paint-order:markers fill stroke"
       d="m 157.27407,195.0861 c -3.12682,-4.39065 -6.21939,-25.91192 6.07249,-25.6612 12.47457,0.25442 21.68381,14.11528 20.42699,16.92154 -8.65824,-16.30183 -31.84178,-19.95186 -26.49937,8.73968 z"
       sodipodi:nodetypes="cscc"
       inkscape:label="EarShade"
       inkscape:transform-center-x="18.499988"
       inkscape:transform-center-y="-87.018492" />
    <path
       id="path53"
       style="fill:#743e41;fill-opacity:1;fill-rule:evenodd;stroke-width:0.999999;stroke-miterlimit:80;stroke-dashoffset:2.09998;paint-order:markers fill stroke"
       d="m 280.82208,292.56036 c -17.6594,-4.7459 -29.843,-18.70433 -29.30278,-21.10974 6.93702,1.64815 24.11906,7.77434 31.05452,7.88258 z"
       sodipodi:nodetypes="cccc"
       inkscape:label="Mouth"
       inkscape:transform-center-x="-79.357542"
       inkscape:transform-center-y="12.732577" />
    <path
       id="path54"
       style="fill:#ffffff;fill-opacity:1;fill-rule:evenodd;stroke-width:0.999999;stroke-miterlimit:80;stroke-dashoffset:2.09998;paint-order:markers fill stroke"
       d="m 281.04384,286.36158 c -7.1481,-0.15057 -25.40489,-10.44361 -25.35402,-12.85932 5.56893,2.10919 17.33595,5.76348 26.54971,6.54881 -0.0748,2.11403 -0.56473,4.81309 -1.19555,6.31054 z"
       sodipodi:nodetypes="cccc"
       inkscape:label="Teeth"
       inkscape:transform-center-x="-81.28424"
       inkscape:transform-center-y="10.659022" />
  </g>
</svg>
